<svg xmlns="http://www.w3.org/2000/svg" viewBox="0 0 64 64" width="64" height="64">
  <!-- Persona izquierda -->
  <circle cx="21" cy="18" r="9" fill="#fde68a"/>
  <path d="M9 50c0-8 5.4-13 12-13s12 5 12 13v3H9v-3z" fill="#6366f1"/>
  <rect x="18" y="27" width="6" height="4" rx="2" fill="#fcd34d"/>
  <circle cx="18" cy="17" r="1.4" fill="#1f2937"/>
  <circle cx="24" cy="17" r="1.4" fill="#1f2937"/>
  <path d="M18.5 21.5c1 1.8 5 1.8 6 0" stroke="#92400e" stroke-width="1.5" stroke-linecap="round" fill="none"/>

  <!-- Persona derecha -->
  <circle cx="43" cy="20" r="8" fill="#fca5a5"/>
  <path d="M32 50c0-7.5 5-12 11-12s11 4.5 11 12v3H32v-3z" fill="#10b981"/>
  <rect x="40" y="28" width="6" height="3" rx="2" fill="#fb7185"/>
  <circle cx="40" cy="19" r="1.3" fill="#1f2937"/>
  <circle cx="46" cy="19" r="1.3" fill="#1f2937"/>
  <path d="M40 23.5c1 1.6 5 1.6 6 0" stroke="#92400e" stroke-width="1.4" stroke-linecap="round" fill="none"/>

  <!-- Estrella de fidelidad -->
  <circle cx="54" cy="10" r="7.5" fill="#fbbf24"/>
  <polygon points="54,4 55.5,8.5 60,8.5 56.5,11.5 57.8,16 54,13.2 50.2,16 51.5,11.5 48,8.5 52.5,8.5" fill="#fff"/>
</svg>
